<svg id="svg" version="1.1" xmlns="http://www.w3.org/2000/svg" style="display: block;" viewBox="0 0 760 310"><path d="M0,0 L760,0 L760,310 L0,310 Z " transform="translate(0,0)" style="fill: #000000;"/><path d="M0,0 L1,0 L1,2 L0,2 L0,3 L-1,3 L-1,4 L-2,4 L-2,5 L-3,5 L-3,7 L-4,7 L-4,8 L-5,8 L-5,9 L-6,9 L-6,11 L-7,11 L-7,12 L-8,12 L-8,14 L-9,14 L-9,15 L-10,15 L-10,16 L-11,16 L-11,18 L-12,18 L-12,19 L-13,19 L-13,21 L-14,21 L-14,22 L-15,22 L-15,23 L-16,23 L-16,25 L-17,25 L-17,26 L-18,26 L-18,28 L-19,28 L-19,29 L-20,29 L-20,31 L-21,31 L-21,35 L-22,35 L-22,36 L-21,36 L-21,37 L-20,37 L-20,38 L-19,38 L-19,39 L-18,39 L-18,41 L-17,41 L-17,42 L-16,42 L-16,44 L-15,44 L-15,45 L-14,45 L-14,48 L-13,48 L-13,51 L-12,51 L-12,53 L-11,53 L-11,63 L-12,63 L-12,66 L-13,66 L-13,70 L-14,70 L-14,72 L-15,72 L-15,74 L-16,74 L-16,76 L-17,76 L-17,77 L-18,77 L-18,78 L-19,78 L-19,79 L-20,79 L-20,77 L-19,77 L-19,76 L-18,76 L-18,74 L-20,74 L-20,75 L-21,75 L-21,77 L-22,77 L-22,82 L-23,82 L-23,83 L-24,83 L-24,84 L-26,84 L-26,85 L-27,85 L-27,86 L-29,86 L-29,87 L-31,87 L-31,88 L-37,88 L-37,89 L-50,89 L-50,83 L-49,83 L-49,81 L-48,81 L-48,74 L-46,74 L-46,73 L-42,73 L-42,74 L-41,74 L-41,75 L-40,75 L-40,74 L-39,74 L-39,72 L-40,72 L-40,70 L-41,70 L-41,68 L-42,68 L-42,67 L-43,67 L-43,65 L-44,65 L-44,64 L-45,64 L-45,63 L-46,63 L-46,64 L-47,64 L-47,69 L-48,69 L-48,73 L-49,73 L-49,74 L-50,74 L-50,78 L-51,78 L-51,80 L-52,80 L-52,84 L-53,84 L-53,88 L-54,88 L-54,90 L-55,90 L-55,94 L-56,94 L-56,95 L-57,95 L-57,98 L-58,98 L-58,100 L-59,100 L-59,101 L-60,101 L-60,103 L-61,103 L-61,104 L-62,104 L-62,105 L-63,105 L-63,107 L-64,107 L-64,108 L-65,108 L-65,110 L-66,110 L-66,111 L-67,111 L-67,112 L-68,112 L-68,114 L-69,114 L-69,115 L-70,115 L-70,117 L-71,117 L-71,119 L-72,119 L-72,120 L-73,120 L-73,122 L-74,122 L-74,118 L-73,118 L-73,114 L-72,114 L-72,112 L-71,112 L-71,108 L-70,108 L-70,106 L-69,106 L-69,102 L-68,102 L-68,98 L-67,98 L-67,97 L-66,97 L-66,93 L-65,93 L-65,91 L-64,91 L-64,87 L-63,87 L-63,83 L-62,83 L-62,81 L-63,81 L-63,80 L-64,80 L-64,79 L-65,79 L-65,78 L-66,78 L-66,77 L-67,77 L-67,75 L-68,75 L-68,74 L-69,74 L-69,71 L-70,71 L-70,70 L-71,70 L-71,66 L-72,66 L-72,63 L-73,63 L-73,56 L-72,56 L-72,52 L-71,52 L-71,48 L-70,48 L-70,46 L-69,46 L-69,44 L-68,44 L-68,43 L-67,43 L-67,41 L-66,41 L-66,40 L-65,40 L-65,39 L-64,39 L-64,38 L-63,38 L-63,37 L-62,37 L-62,36 L-61,36 L-61,35 L-60,35 L-60,34 L-59,34 L-59,33 L-57,33 L-57,32 L-55,32 L-55,31 L-54,31 L-54,30 L-50,30 L-50,29 L-34,29 L-34,30 L-33,30 L-33,31 L-34,31 L-34,35 L-35,35 L-35,37 L-36,37 L-36,38 L-47,38 L-47,39 L-50,39 L-50,40 L-52,40 L-52,41 L-54,41 L-54,42 L-55,42 L-55,43 L-56,43 L-56,44 L-57,44 L-57,45 L-58,45 L-58,46 L-59,46 L-59,48 L-60,48 L-60,49 L-61,49 L-61,51 L-62,51 L-62,55 L-63,55 L-63,63 L-62,63 L-62,66 L-61,66 L-61,68 L-60,68 L-60,70 L-58,70 L-58,66 L-57,66 L-57,64 L-56,64 L-56,61 L-55,61 L-55,56 L-54,56 L-54,54 L-53,54 L-53,50 L-52,50 L-52,48 L-51,48 L-51,45 L-50,45 L-50,41 L-49,41 L-49,40 L-47,40 L-47,43 L-46,43 L-46,44 L-45,44 L-45,45 L-44,45 L-44,47 L-43,47 L-43,48 L-42,48 L-42,51 L-41,51 L-41,53 L-40,53 L-40,54 L-39,54 L-39,55 L-38,55 L-38,54 L-37,54 L-37,50 L-36,50 L-36,48 L-35,48 L-35,44 L-34,44 L-34,43 L-33,43 L-33,38 L-32,38 L-32,34 L-31,34 L-31,32 L-30,32 L-30,29 L-29,29 L-29,27 L-28,27 L-28,23 L-27,23 L-27,20 L-26,20 L-26,19 L-25,19 L-25,18 L-23,18 L-23,17 L-22,17 L-22,16 L-20,16 L-20,15 L-19,15 L-19,14 L-18,14 L-18,13 L-17,13 L-17,12 L-15,12 L-15,11 L-13,11 L-13,10 L-12,10 L-12,9 L-11,9 L-11,8 L-9,8 L-9,7 L-8,7 L-8,6 L-6,6 L-6,5 L-5,5 L-5,4 L-4,4 L-4,3 L-2,3 L-2,2 L-1,2 L-1,1 L0,1 Z " transform="translate(412,81)" style="fill: #319AAF;"/><path d="M0,0 L16,0 L16,1 L17,1 L17,2 L16,2 L16,6 L15,6 L15,8 L14,8 L14,9 L3,9 L3,10 L0,10 L0,11 L-2,11 L-2,12 L-4,12 L-4,13 L-5,13 L-5,14 L-6,14 L-6,15 L-7,15 L-7,16 L-8,16 L-8,17 L-9,17 L-9,19 L-10,19 L-10,20 L-11,20 L-11,22 L-12,22 L-12,26 L-13,26 L-13,34 L-12,34 L-12,37 L-11,37 L-11,39 L-10,39 L-10,41 L-8,41 L-8,37 L-7,37 L-7,35 L-6,35 L-6,32 L-5,32 L-5,27 L-4,27 L-4,25 L-3,25 L-3,21 L-2,21 L-2,19 L-1,19 L-1,16 L0,16 L0,12 L1,12 L1,11 L3,11 L3,14 L4,14 L4,15 L5,15 L5,16 L6,16 L6,18 L7,18 L7,19 L8,19 L8,22 L9,22 L9,24 L10,24 L10,25 L11,25 L11,26 L12,26 L12,25 L13,25 L13,27 L12,27 L12,28 L10,28 L10,27 L9,27 L9,26 L8,26 L8,25 L7,25 L7,24 L6,24 L6,22 L4,22 L4,23 L5,23 L5,25 L6,25 L6,27 L7,27 L7,28 L8,28 L8,29 L9,29 L9,30 L11,30 L11,31 L12,31 L12,32 L13,32 L13,31 L15,31 L15,33 L14,33 L14,34 L15,34 L15,35 L13,35 L13,36 L12,36 L12,38 L11,38 L11,37 L10,37 L10,35 L8,35 L8,36 L9,36 L9,39 L8,39 L8,38 L7,38 L7,36 L6,36 L6,35 L5,35 L5,34 L4,34 L4,35 L3,35 L3,40 L2,40 L2,44 L1,44 L1,45 L0,45 L0,49 L-1,49 L-1,51 L-2,51 L-2,55 L-3,55 L-3,59 L-4,59 L-4,61 L-5,61 L-5,65 L-6,65 L-6,66 L-7,66 L-7,69 L-8,69 L-8,71 L-9,71 L-9,72 L-10,72 L-10,74 L-11,74 L-11,75 L-12,75 L-12,76 L-13,76 L-13,78 L-14,78 L-14,79 L-15,79 L-15,81 L-16,81 L-16,82 L-17,82 L-17,83 L-18,83 L-18,85 L-19,85 L-19,86 L-20,86 L-20,88 L-21,88 L-21,90 L-22,90 L-22,91 L-23,91 L-23,93 L-24,93 L-24,89 L-23,89 L-23,85 L-22,85 L-22,83 L-21,83 L-21,79 L-20,79 L-20,77 L-19,77 L-19,73 L-18,73 L-18,69 L-17,69 L-17,68 L-16,68 L-16,64 L-15,64 L-15,62 L-14,62 L-14,58 L-13,58 L-13,54 L-12,54 L-12,52 L-13,52 L-13,51 L-14,51 L-14,50 L-15,50 L-15,49 L-16,49 L-16,48 L-17,48 L-17,46 L-18,46 L-18,45 L-19,45 L-19,42 L-20,42 L-20,41 L-21,41 L-21,37 L-22,37 L-22,34 L-23,34 L-23,27 L-22,27 L-22,23 L-21,23 L-21,19 L-20,19 L-20,17 L-19,17 L-19,15 L-18,15 L-18,14 L-17,14 L-17,12 L-16,12 L-16,11 L-15,11 L-15,10 L-14,10 L-14,9 L-13,9 L-13,8 L-12,8 L-12,7 L-11,7 L-11,6 L-10,6 L-10,5 L-9,5 L-9,4 L-7,4 L-7,3 L-5,3 L-5,2 L-4,2 L-4,1 L0,1 Z M10,38 L11,38 L11,39 L10,39 Z " transform="translate(362,110)" style="fill: #27A8A8;"/><path d="M0,0 L16,0 L16,1 L17,1 L17,2 L16,2 L16,6 L15,6 L15,8 L14,8 L14,9 L3,9 L3,10 L0,10 L0,11 L-2,11 L-2,12 L-4,12 L-4,13 L-5,13 L-5,14 L-6,14 L-6,15 L-7,15 L-7,16 L-8,16 L-8,17 L-9,17 L-9,19 L-10,19 L-10,20 L-11,20 L-11,22 L-12,22 L-12,26 L-13,26 L-13,34 L-12,34 L-12,37 L-11,37 L-11,39 L-13,39 L-13,42 L-14,42 L-14,41 L-15,41 L-15,40 L-14,40 L-14,37 L-15,37 L-15,39 L-18,39 L-18,38 L-19,38 L-19,40 L-20,40 L-20,38 L-21,38 L-21,37 L-22,37 L-22,34 L-23,34 L-23,27 L-22,27 L-22,23 L-21,23 L-21,19 L-20,19 L-20,17 L-19,17 L-19,15 L-18,15 L-18,14 L-17,14 L-17,12 L-16,12 L-16,11 L-15,11 L-15,10 L-14,10 L-14,9 L-13,9 L-13,8 L-12,8 L-12,7 L-11,7 L-11,6 L-10,6 L-10,5 L-9,5 L-9,4 L-7,4 L-7,3 L-5,3 L-5,2 L-4,2 L-4,1 L0,1 Z " transform="translate(362,110)" style="fill: #27AEA3;"/><path d="M0,0 L1,0 L1,1 L2,1 L2,4 L3,4 L3,8 L4,8 L4,15 L3,15 L3,19 L2,19 L2,22 L1,22 L1,26 L2,26 L2,29 L1,29 L1,28 L0,28 L0,27 L-2,27 L-2,28 L-1,28 L-1,30 L0,30 L0,34 L2,34 L2,31 L3,31 L3,35 L2,35 L2,36 L1,36 L1,37 L-1,37 L-1,38 L-2,38 L-2,39 L-4,39 L-4,40 L-6,40 L-6,41 L-12,41 L-12,42 L-25,42 L-25,36 L-24,36 L-24,34 L-23,34 L-23,27 L-21,27 L-21,26 L-17,26 L-17,27 L-16,27 L-16,28 L-15,28 L-15,27 L-14,27 L-14,34 L-12,34 L-12,27 L-11,27 L-11,28 L-8,28 L-8,29 L-9,29 L-9,30 L-8,30 L-8,34 L-6,34 L-6,28 L-3,28 L-3,27 L-9,27 L-9,25 L-8,25 L-8,24 L-7,24 L-7,19 L-6,19 L-6,16 L-5,16 L-5,14 L-4,14 L-4,10 L-3,10 L-3,9 L-2,9 L-2,5 L-1,5 L-1,1 L0,1 Z " transform="translate(387,128)" style="fill: #2D78B2;"/><path d="M0,0 L2,0 L2,1 L3,1 L3,4 L5,4 L5,5 L4,5 L4,7 L5,7 L5,12 L4,12 L4,16 L3,16 L3,17 L2,17 L2,21 L1,21 L1,23 L0,23 L0,26 L-1,26 L-1,31 L-2,31 L-2,32 L-3,32 L-3,34 L3,34 L3,35 L0,35 L0,41 L-2,41 L-2,37 L-3,37 L-3,36 L-2,36 L-2,35 L-5,35 L-5,34 L-6,34 L-6,41 L-8,41 L-8,32 L-9,32 L-9,30 L-10,30 L-10,25 L-11,25 L-11,24 L-9,24 L-9,26 L-8,26 L-8,27 L-7,27 L-7,25 L-6,25 L-6,24 L-4,24 L-4,23 L-5,23 L-5,22 L-4,22 L-4,20 L-6,20 L-6,21 L-7,21 L-7,20 L-8,20 L-8,19 L-10,19 L-10,18 L-11,18 L-11,17 L-12,17 L-12,16 L-13,16 L-13,14 L-14,14 L-14,12 L-15,12 L-15,11 L-13,11 L-13,13 L-12,13 L-12,14 L-11,14 L-11,15 L-10,15 L-10,16 L-9,16 L-9,17 L-7,17 L-7,16 L-6,16 L-6,10 L-5,10 L-5,8 L-4,8 L-4,4 L-3,4 L-3,3 L-2,3 L-2,2 L-1,2 L-1,1 L0,1 Z M-9,27 L-9,28 L-8,28 L-8,27 Z " transform="translate(381,121)" style="fill: #3FAFC0;"/><path d="M0,0 L2,0 L2,1 L4,1 L4,2 L5,2 L5,3 L6,3 L6,4 L8,4 L8,3 L9,3 L9,8 L10,8 L10,16 L9,16 L9,20 L8,20 L8,22 L7,22 L7,24 L6,24 L6,26 L5,26 L5,27 L4,27 L4,28 L3,28 L3,29 L2,29 L2,27 L3,27 L3,26 L4,26 L4,24 L2,24 L2,25 L1,25 L1,27 L0,27 L0,28 L-1,28 L-1,31 L-3,31 L-3,27 L-4,27 L-4,25 L-5,25 L-5,24 L-3,24 L-3,25 L-2,25 L-2,26 L-1,26 L-1,23 L-2,23 L-2,19 L-1,19 L-1,16 L0,16 L0,12 L1,12 L1,5 L0,5 Z " transform="translate(390,131)" style="fill: #439ACB;"/><path d="M0,0 L1,0 L1,2 L0,2 L0,3 L-1,3 L-1,4 L-2,4 L-2,5 L-3,5 L-3,7 L-4,7 L-4,8 L-5,8 L-5,9 L-6,9 L-6,11 L-7,11 L-7,12 L-8,12 L-8,14 L-9,14 L-9,15 L-10,15 L-10,16 L-11,16 L-11,18 L-12,18 L-12,19 L-13,19 L-13,21 L-14,21 L-14,22 L-15,22 L-15,23 L-16,23 L-16,25 L-17,25 L-17,26 L-18,26 L-18,28 L-19,28 L-19,29 L-20,29 L-20,31 L-21,31 L-21,28 L-22,28 L-22,27 L-23,27 L-23,26 L-28,26 L-28,23 L-27,23 L-27,20 L-26,20 L-26,19 L-25,19 L-25,18 L-23,18 L-23,17 L-22,17 L-22,16 L-20,16 L-20,15 L-19,15 L-19,14 L-18,14 L-18,13 L-17,13 L-17,12 L-15,12 L-15,11 L-13,11 L-13,10 L-12,10 L-12,9 L-11,9 L-11,8 L-9,8 L-9,7 L-8,7 L-8,6 L-6,6 L-6,5 L-5,5 L-5,4 L-4,4 L-4,3 L-2,3 L-2,2 L-1,2 L-1,1 L0,1 Z " transform="translate(412,81)" style="fill: #5DAFAA;"/><path d="M0,0 L2,0 L2,1 L4,1 L4,2 L7,2 L7,4 L3,4 L3,3 L2,3 L2,5 L3,5 L3,6 L4,6 L4,7 L5,7 L5,8 L6,8 L6,10 L5,10 L5,13 L4,13 L4,15 L3,15 L3,16 L2,16 L2,18 L1,18 L1,19 L0,19 L0,20 L-1,20 L-1,22 L-2,22 L-2,23 L-3,23 L-3,25 L-4,25 L-4,26 L-5,26 L-5,27 L-6,27 L-6,29 L-7,29 L-7,30 L-8,30 L-8,32 L-9,32 L-9,34 L-10,34 L-10,35 L-11,35 L-11,37 L-12,37 L-12,33 L-11,33 L-11,29 L-10,29 L-10,27 L-9,27 L-9,23 L-8,23 L-8,21 L-7,21 L-7,17 L-6,17 L-6,13 L-5,13 L-5,12 L-4,12 L-4,8 L-3,8 L-3,6 L-2,6 L-2,2 L0,2 Z " transform="translate(350,166)" style="fill: #2E9DB3;"/><path d="M0,0 L1,0 L1,1 L2,1 L2,4 L3,4 L3,8 L4,8 L4,15 L3,15 L3,19 L2,19 L2,22 L1,22 L1,23 L0,23 L0,25 L-1,25 L-1,26 L-8,26 L-8,24 L-7,24 L-7,19 L-6,19 L-6,16 L-5,16 L-5,14 L-4,14 L-4,10 L-3,10 L-3,9 L-2,9 L-2,5 L-1,5 L-1,1 L0,1 Z " transform="translate(387,128)" style="fill: #020507;"/><path d="M0,0 L5,0 L5,1 L6,1 L6,2 L7,2 L7,9 L6,9 L6,12 L5,12 L5,13 L3,13 L3,14 L2,14 L2,13 L0,13 L0,15 L-1,15 L-1,14 L-3,14 L-3,15 L-4,15 L-4,16 L-5,16 L-5,12 L-4,12 L-4,8 L-3,8 L-3,6 L-2,6 L-2,3 L-1,3 L-1,1 L0,1 Z " transform="translate(384,107)" style="fill: #2FB0AA;"/><path d="M0,0 L1,0 L1,3 L0,3 L0,5 L-1,5 L-1,9 L-2,9 L-2,13 L-3,13 L-3,15 L-4,15 L-4,19 L-5,19 L-5,18 L-6,18 L-6,17 L-7,17 L-7,16 L-8,16 L-8,15 L-9,15 L-9,13 L-8,13 L-8,14 L-4,14 L-4,12 L-7,12 L-7,11 L-9,11 L-9,10 L-11,10 L-11,12 L-12,12 L-12,8 L-11,8 L-11,5 L-10,5 L-10,4 L-9,4 L-9,5 L-8,5 L-8,4 L-4,4 L-4,3 L-2,3 L-2,1 L0,1 Z " transform="translate(361,156)" style="fill: #3096B2;"/><path d="M0,0 L2,0 L2,2 L3,2 L3,3 L4,3 L4,1 L5,1 L5,0 L7,0 L7,1 L8,1 L8,2 L9,2 L9,3 L10,3 L10,7 L9,7 L9,8 L8,8 L8,10 L14,10 L14,11 L11,11 L11,17 L9,17 L9,13 L8,13 L8,12 L9,12 L9,11 L6,11 L6,10 L5,10 L5,17 L3,17 L3,8 L2,8 L2,6 L1,6 L1,1 L0,1 Z M2,3 L2,4 L3,4 L3,3 Z " transform="translate(370,145)" style="fill: #52A0BC;"/><path d="M0,0 L1,0 L1,2 L0,2 L0,3 L-1,3 L-1,4 L-2,4 L-2,5 L-3,5 L-3,7 L-4,7 L-4,8 L-5,8 L-5,9 L-6,9 L-6,11 L-7,11 L-7,12 L-8,12 L-8,14 L-9,14 L-9,15 L-10,15 L-10,16 L-11,16 L-11,18 L-12,18 L-12,19 L-13,19 L-13,21 L-14,21 L-14,18 L-15,18 L-15,17 L-16,17 L-16,16 L-17,16 L-17,15 L-19,15 L-19,14 L-18,14 L-18,13 L-17,13 L-17,12 L-15,12 L-15,11 L-13,11 L-13,10 L-12,10 L-12,9 L-11,9 L-11,8 L-9,8 L-9,7 L-8,7 L-8,6 L-6,6 L-6,5 L-5,5 L-5,4 L-4,4 L-4,3 L-2,3 L-2,2 L-1,2 L-1,1 L0,1 Z " transform="translate(412,81)" style="fill: #947065;"/><path d="M0,0 L12,0 L12,1 L13,1 L13,2 L12,2 L12,6 L11,6 L11,8 L10,8 L10,9 L7,9 L7,8 L1,8 L1,6 L0,6 Z " transform="translate(366,110)" style="fill: #35BFB1;"/><path d="M0,0 L1,0 L1,3 L4,3 L4,4 L5,4 L5,5 L7,5 L7,6 L6,6 L6,7 L5,7 L5,9 L4,9 L4,10 L3,10 L3,12 L2,12 L2,13 L1,13 L1,14 L0,14 L0,16 L-1,16 L-1,17 L-2,17 L-2,19 L-3,19 L-3,21 L-4,21 L-4,22 L-5,22 L-5,24 L-6,24 L-6,20 L-5,20 L-5,16 L-4,16 L-4,14 L-3,14 L-3,10 L-2,10 L-2,8 L-1,8 L-1,4 L0,4 Z " transform="translate(344,179)" style="fill: #9D6759;"/><path d="M0,0 L2,0 L2,1 L3,1 L3,2 L4,2 L4,6 L3,6 L3,8 L2,8 L2,9 L1,9 L1,10 L0,10 L0,11 L-1,11 L-1,9 L0,9 L0,8 L1,8 L1,6 L-1,6 L-1,7 L-2,7 L-2,9 L-3,9 L-3,10 L-4,10 L-4,13 L-6,13 L-6,9 L-7,9 L-7,7 L-8,7 L-8,6 L-6,6 L-6,7 L-5,7 L-5,8 L-4,8 L-4,5 L-5,5 L-5,2 L-3,2 L-3,3 L-2,3 L-2,1 L0,1 Z " transform="translate(393,149)" style="fill: #4383C7;"/><path d="M0,0 L5,0 L5,1 L6,1 L6,2 L7,2 L7,6 L5,6 L5,7 L4,7 L4,6 L2,6 L2,10 L-1,10 L-1,9 L-2,9 L-2,3 L-1,3 L-1,1 L0,1 Z " transform="translate(384,107)" style="fill: #37C0B4;"/><path d="M0,0 L1,0 L1,2 L2,2 L2,3 L5,3 L5,2 L8,2 L8,1 L10,1 L10,4 L9,4 L9,8 L8,8 L8,10 L7,10 L7,8 L6,8 L6,7 L5,7 L5,6 L3,6 L3,7 L1,7 L1,9 L0,9 L0,8 L-2,8 L-2,7 L-1,7 L-1,4 L0,4 Z " transform="translate(390,143)" style="fill: #3980BD;"/><path d="M0,0 L1,0 L1,2 L0,2 L0,3 L-1,3 L-1,4 L-2,4 L-2,5 L-3,5 L-3,7 L-4,7 L-4,8 L-5,8 L-5,9 L-6,9 L-6,11 L-7,11 L-7,12 L-8,12 L-8,14 L-9,14 L-9,13 L-11,13 L-11,11 L-12,11 L-12,9 L-11,9 L-11,8 L-9,8 L-9,7 L-8,7 L-8,6 L-6,6 L-6,5 L-5,5 L-5,4 L-4,4 L-4,3 L-2,3 L-2,2 L-1,2 L-1,1 L0,1 Z " transform="translate(412,81)" style="fill: #AC604C;"/><path d="M0,0 L1,0 L1,3 L2,3 L2,6 L1,6 L1,5 L0,5 L0,4 L-2,4 L-2,7 L-3,7 L-3,12 L-6,12 L-6,5 L-3,5 L-3,4 L-9,4 L-9,2 L-8,2 L-8,3 L-1,3 L-1,2 L0,2 Z " transform="translate(387,151)" style="fill: #2C4761;"/><path d="M0,0 L2,0 L2,1 L4,1 L4,2 L7,2 L7,4 L3,4 L3,3 L2,3 L2,5 L3,5 L3,6 L4,6 L4,7 L5,7 L5,8 L6,8 L6,10 L5,10 L5,9 L4,9 L4,8 L1,8 L1,7 L0,7 L0,6 L-1,6 L-1,5 L-2,5 L-2,2 L0,2 Z " transform="translate(350,166)" style="fill: #4499AF;"/><path d="M0,0 L4,0 L4,1 L5,1 L5,4 L3,4 L3,2 L1,2 L1,6 L3,6 L3,5 L5,5 L5,7 L4,7 L4,8 L-1,8 L-1,7 L-2,7 L-2,1 L0,1 Z " transform="translate(366,154)" style="fill: #D7D9D9;"/><path d="M0,0 L5,0 L5,1 L4,1 L4,5 L3,5 L3,6 L1,6 L1,7 L-2,7 L-2,6 L-3,6 L-3,8 L-4,8 L-4,7 L-5,7 L-5,6 L-4,6 L-4,5 L-3,5 L-3,4 L-2,4 L-2,3 L-1,3 L-1,1 L0,1 Z " transform="translate(358,151)" style="fill: #2BA3B5;"/><path d="M0,0 L2,0 L2,1 L3,1 L3,4 L5,4 L5,5 L4,5 L4,7 L5,7 L5,12 L4,12 L4,11 L3,11 L3,10 L2,10 L2,6 L1,6 L1,5 L0,5 L0,4 L-3,4 L-3,3 L-2,3 L-2,2 L-1,2 L-1,1 L0,1 Z " transform="translate(381,121)" style="fill: #39ADB9;"/><path d="M0,0 L2,0 L2,3 L3,3 L3,4 L4,4 L4,5 L5,5 L5,7 L6,7 L6,8 L7,8 L7,10 L6,10 L6,9 L4,9 L4,8 L3,8 L3,6 L1,6 L1,4 L0,4 L0,7 L-1,7 L-1,9 L-2,9 L-2,10 L-3,10 L-3,8 L-2,8 L-2,5 L-1,5 L-1,1 L0,1 Z " transform="translate(363,121)" style="fill: #26978A;"/><path d="M0,0 L1,0 L1,2 L2,2 L2,6 L4,6 L4,3 L5,3 L5,7 L4,7 L4,8 L3,8 L3,9 L1,9 L1,10 L0,10 L0,9 L-2,9 L-2,7 L-1,7 L-1,2 L0,2 Z " transform="translate(385,156)" style="fill: #477EBD;"/><path d="M0,0 L1,0 L1,2 L2,2 L2,3 L3,3 L3,6 L2,6 L2,7 L1,7 L1,9 L0,9 L0,11 L-1,11 L-1,12 L-2,12 L-2,14 L-3,14 L-3,10 L-2,10 L-2,6 L-1,6 L-1,4 L0,4 Z " transform="translate(341,189)" style="fill: #AD472D;"/><path d="M0,0 L1,0 L1,1 L2,1 L2,0 L3,0 L3,2 L2,2 L2,3 L1,3 L1,4 L2,4 L2,5 L3,5 L3,3 L4,3 L4,4 L7,4 L7,5 L5,5 L5,6 L1,6 L1,7 L0,7 L0,6 L-2,6 L-2,4 L-3,4 L-3,1 L0,1 Z " transform="translate(352,154)" style="fill: #229FAD;"/><path d="M0,0 L1,0 L1,2 L4,2 L4,1 L6,1 L6,0 L7,0 L7,1 L9,1 L9,3 L8,3 L8,4 L7,4 L7,6 L4,6 L4,5 L3,5 L3,4 L0,4 Z " transform="translate(345,178)" style="fill: #3D91A8;"/><path d="M0,0 L1,0 L1,7 L0,7 L0,8 L-3,8 L-3,7 L-2,7 L-2,6 L-1,6 L-1,4 L-3,4 L-3,5 L-5,5 L-5,1 L-3,1 L-3,3 L-1,3 L-1,1 L0,1 Z " transform="translate(372,155)" style="fill: #3F474B;"/><path d="M0,0 L1,0 L1,1 L4,1 L4,2 L3,2 L3,3 L4,3 L4,5 L3,5 L3,8 L0,8 Z " transform="translate(375,155)" style="fill: #354A59;"/><path d="M0,0 L1,0 L1,2 L0,2 L0,3 L-1,3 L-1,4 L-2,4 L-2,5 L-3,5 L-3,7 L-4,7 L-4,8 L-5,8 L-5,9 L-7,9 L-7,8 L-8,8 L-8,6 L-6,6 L-6,5 L-5,5 L-5,4 L-4,4 L-4,3 L-2,3 L-2,2 L-1,2 L-1,1 L0,1 Z " transform="translate(412,81)" style="fill: #B7472A;"/><path d="M0,0 L2,0 L2,1 L3,1 L3,2 L4,2 L4,0 L7,0 L7,1 L6,1 L6,3 L5,3 L5,4 L4,4 L4,7 L2,7 L2,3 L1,3 L1,1 L0,1 Z " transform="translate(385,155)" style="fill: #F2F5F7;"/><path d="M0,0 L1,0 L1,3 L4,3 L4,4 L5,4 L5,5 L7,5 L7,6 L6,6 L6,7 L5,7 L5,6 L2,6 L2,5 L0,5 L0,8 L-1,8 L-1,4 L0,4 Z " transform="translate(344,179)" style="fill: #71706F;"/><path d="M0,0 L1,0 L1,3 L0,3 L0,5 L-1,5 L-1,9 L-2,9 L-2,8 L-3,8 L-3,7 L-4,7 L-4,6 L-5,6 L-5,5 L-6,5 L-6,3 L-5,3 L-5,4 L-1,4 L-1,2 L0,2 Z " transform="translate(358,166)" style="fill: #287493;"/><path d="M0,0 L8,0 L8,1 L5,1 L5,7 L3,7 L3,3 L2,3 L2,2 L3,2 L3,1 L0,1 Z " transform="translate(376,155)" style="fill: #F6F7F8;"/><path d="M0,0 L1,0 L1,2 L2,2 L2,1 L3,1 L3,3 L2,3 L2,4 L1,4 L1,6 L0,6 L0,7 L-3,7 L-3,5 L-2,5 L-2,3 L-1,3 L-1,2 L0,2 Z " transform="translate(345,122)" style="fill: #26A09A;"/><path d="M0,0 L2,0 L2,2 L3,2 L3,3 L2,3 L2,5 L1,5 L1,6 L0,6 L0,8 L-1,8 L-1,5 L-2,5 L-2,2 L0,2 Z " transform="translate(392,104)" style="fill: #54A2A5;"/><path d="M0,0 L1,0 L1,1 L3,1 L3,4 L4,4 L4,6 L3,6 L3,8 L2,8 L2,5 L1,5 L1,4 L0,4 L0,3 L-1,3 L-1,2 L-3,2 L-3,1 L0,1 Z " transform="translate(396,94)" style="fill: #838984;"/><path d="M0,0 L2,0 L2,2 L4,2 L4,0 L5,0 L5,3 L6,3 L6,5 L7,5 L7,6 L6,6 L6,7 L5,7 L5,6 L4,6 L4,5 L3,5 L3,4 L2,4 L2,3 L1,3 L1,1 L0,1 Z " transform="translate(344,155)" style="fill: #29999E;"/><path d="M0,0 L1,0 L1,3 L2,3 L2,6 L1,6 L1,5 L0,5 L0,4 L-2,4 L-2,5 L-3,5 L-3,4 L-9,4 L-9,2 L-8,2 L-8,3 L-1,3 L-1,2 L0,2 Z " transform="translate(387,151)" style="fill: #4D6A82;"/><path d="M0,0 L2,0 L2,2 L3,2 L3,3 L4,3 L4,4 L5,4 L5,5 L6,5 L6,6 L7,6 L7,7 L8,7 L8,9 L7,9 L7,8 L5,8 L5,7 L4,7 L4,6 L3,6 L3,5 L2,5 L2,3 L1,3 L1,1 L0,1 Z " transform="translate(366,132)" style="fill: #3DC0C3;"/><path d="M0,0 L2,0 L2,1 L4,1 L4,2 L7,2 L7,4 L3,4 L3,3 L-1,3 L-1,2 L0,2 Z " transform="translate(350,166)" style="fill: #3FA6C9;"/><path d="M0,0 L1,0 L1,1 L2,1 L2,2 L1,2 L1,3 L2,3 L2,4 L1,4 L1,5 L2,5 L2,8 L1,8 L1,7 L0,7 L0,5 L-1,5 L-1,4 L-2,4 L-2,3 L-3,3 L-3,2 L0,2 Z " transform="translate(369,141)" style="fill: #298D9B;"/><path d="M0,0 L2,0 L2,2 L3,2 L3,3 L4,3 L4,4 L5,4 L5,3 L6,3 L6,5 L5,5 L5,6 L3,6 L3,5 L2,5 L2,4 L1,4 L1,3 L0,3 L0,2 L-1,2 L-1,1 L0,1 Z " transform="translate(369,132)" style="fill: #2EA3A5;"/><path d="M0,0 L2,0 L2,1 L3,1 L3,4 L2,4 L2,3 L1,3 L1,5 L0,5 L0,4 L-3,4 L-3,3 L-2,3 L-2,2 L-1,2 L-1,1 L0,1 Z " transform="translate(381,121)" style="fill: #37BCBB;"/></svg>